<?xml version="1.0" standalone="no"?><!DOCTYPE svg PUBLIC "-//W3C//DTD SVG 1.1//EN" "http://www.w3.org/Graphics/SVG/1.1/DTD/svg11.dtd"><svg t="1586832425610" class="icon" viewBox="0 0 1121 1024" version="1.1" xmlns="http://www.w3.org/2000/svg" p-id="5583" width="52.546875" height="48" xmlns:xlink="http://www.w3.org/1999/xlink"><defs><style type="text/css"></style></defs><path d="M1024 731.428571H97.52381a97.52381 97.52381 0 0 1-97.52381-97.523809V97.52381a97.52381 97.52381 0 0 1 97.52381-97.52381h926.47619a97.52381 97.52381 0 0 1 97.52381 97.52381v536.380952a97.52381 97.52381 0 0 1-97.52381 97.523809zM97.52381 48.761905a48.761905 48.761905 0 0 0-48.761905 48.761905v536.380952a48.761905 48.761905 0 0 0 48.761905 48.761905h926.47619a48.761905 48.761905 0 0 0 48.761905-48.761905V97.52381a48.761905 48.761905 0 0 0-48.761905-48.761905zM97.52381 975.238095h877.714285v48.761905H97.52381z" fill="#333333" p-id="5584"></path><path d="M146.285714 341.333333h97.52381v97.52381H146.285714zM487.619048 341.333333h97.523809v97.52381h-97.523809zM828.952381 341.333333h97.523809v97.52381h-97.523809z" fill="#333333" p-id="5585"></path></svg>