<?xml version="1.0" standalone="no"?><!DOCTYPE svg PUBLIC "-//W3C//DTD SVG 1.1//EN" "http://www.w3.org/Graphics/SVG/1.1/DTD/svg11.dtd"><svg t="1586832380735" class="icon" viewBox="0 0 1024 1024" version="1.1" xmlns="http://www.w3.org/2000/svg" p-id="4546" width="16" height="16" xmlns:xlink="http://www.w3.org/1999/xlink"><defs><style type="text/css"></style></defs><path d="M512 999.796364a23.272727 23.272727 0 0 1-16.290909-6.981819l-256.465455-255.06909A444.043636 444.043636 0 0 1 109.847273 418.909091 393.774545 393.774545 0 0 1 232.727273 134.516364a408.669091 408.669091 0 0 1 558.545454 0A392.843636 392.843636 0 0 1 914.152727 418.909091a444.043636 444.043636 0 0 1-129.396363 319.301818l-257.396364 255.069091a23.272727 23.272727 0 0 1-15.36 6.516364z m0-930.909091a360.727273 360.727273 0 0 0-247.621818 97.745454A347.694545 347.694545 0 0 0 156.392727 418.909091a397.498182 397.498182 0 0 0 115.898182 285.789091L512 943.476364l240.64-238.778182A397.032727 397.032727 0 0 0 867.607273 418.909091a346.763636 346.763636 0 0 0-108.450909-250.414546A360.261818 360.261818 0 0 0 512 70.749091z" fill="#707070" p-id="4547"></path><path d="M512 552.96a21.410909 21.410909 0 0 1-23.738182-17.687273V455.68H414.72a23.738182 23.738182 0 0 1 0-46.545455h73.541818V329.076364a21.410909 21.410909 0 0 1 23.738182-17.687273 21.410909 21.410909 0 0 1 23.738182 17.687273v79.592727h73.541818a23.738182 23.738182 0 0 1 0 46.545454h-73.541818v80.058182a21.410909 21.410909 0 0 1-23.738182 17.687273z" fill="#707070" p-id="4548"></path><path d="M512 675.374545a242.967273 242.967273 0 1 1 242.967273-243.432727A243.432727 243.432727 0 0 1 512 675.374545z m0-439.854545a196.421818 196.421818 0 1 0 196.421818 196.421818A196.887273 196.887273 0 0 0 512 235.52z" fill="#707070" p-id="4549"></path></svg>